PathFileType	4	(X/Y/Z)	/Users/itak/Documents/Research/Walk-IL/dataset/trc/00303_00010.trc
DataRate	CameraRate	NumFrames	NumMarkers	Units	OrigDataRate	OrigDataStartFrame	OrigNumFrames
100.000000	100.000000	4	56	mm	100.000000	198	396
Frame#	Time	RPSI			LPSI			L3			STRN			T10			C7			CLAV			RBAK			LBAK			LSHO			LUPA			LAEL			LAOL			LWTS			LWPS			LFRA			LIFD			LHPS			LHTS			RSHO			RUPA			RAEL			RAOL			RWTS			RWPS			RFRA			RIFD			RBHD			LFHD			RFHD			LBHD			LHIP			RHIP			RASI			LASI			LKNE			LTHI			LANK			LTIP			LTOE			LMT1			LMT5			LHEE			RKNE			RTHI			RTIP			RTOE			RMT1			RMT5			RHEE			RHPS			RHTS			RANK			*53			*54			*55			
		X1	Y1	Z1	X2	Y2	Z2	X3	Y3	Z3	X4	Y4	Z4	X5	Y5	Z5	X6	Y6	Z6	X7	Y7	Z7	X8	Y8	Z8	X9	Y9	Z9	X10	Y10	Z10	X11	Y11	Z11	X12	Y12	Z12	X13	Y13	Z13	X14	Y14	Z14	X15	Y15	Z15	X16	Y16	Z16	X17	Y17	Z17	X18	Y18	Z18	X19	Y19	Z19	X20	Y20	Z20	X21	Y21	Z21	X22	Y22	Z22	X23	Y23	Z23	X24	Y24	Z24	X25	Y25	Z25	X26	Y26	Z26	X27	Y27	Z27	X28	Y28	Z28	X29	Y29	Z29	X30	Y30	Z30	X31	Y31	Z31	X32	Y32	Z32	X33	Y33	Z33	X34	Y34	Z34	X35	Y35	Z35	X36	Y36	Z36	X37	Y37	Z37	X38	Y38	Z38	X39	Y39	Z39	X40	Y40	Z40	X41	Y41	Z41	X42	Y42	Z42	X43	Y43	Z43	X44	Y44	Z44	X45	Y45	Z45	X46	Y46	Z46	X47	Y47	Z47	X48	Y48	Z48	X49	Y49	Z49	X50	Y50	Z50	X51	Y51	Z51	X52	Y52	Z52	X53	Y53	Z53	X54	Y54	Z54	X55	Y55	Z55	X56	Y56	Z56	

199	1.98	391.8192443847656	964.5952758789062	104.7002334594727	225.5459136962891	967.6341552734375	47.35241317749023	302.3912658691406	1032.925048828125	59.43283462524414	380.0226440429688	1225.07666015625	-162.1769866943359	291.0629577636719	1146.4345703125	81.30690765380859	290.7183227539062	1394.403930664062	48.97055053710938	353.8168029785156	1322.499267578125	-100.1524658203125	342.775390625	1252.669677734375	116.6468811035156	184.9531555175781	1358.383422851562	22.8609790802002	170.3034820556641	1368.857299804688	-79.83247375488281	93.99207305908203	1250.539428710938	-91.36912536621094	81.34172821044922	1051.225463867188	-129.8692016601562	114.769889831543	1026.3046875	-52.76562881469727	164.9504089355469	851.3267211914062	-226.5724334716797	93.11810302734375	833.8746337890625	-219.8639984130859	81.87680053710938	952.4213256835938	-164.286865234375	169.205078125	673.9942016601562	-276.5498352050781	101.0580673217773	749.490478515625	-243.6785888671875	156.2686767578125	763.103515625	-277.6551208496094	462.9661865234375	1372.460083007812	44.29407501220703	519.84814453125	1314.1572265625	76.27187347412109	546.4544677734375	1053.146240234375	130.3692626953125	453.9779052734375	1045.328491210938	109.6953048706055	549.752197265625	813.6172485351562	63.01627731323242	588.6912231445312	825.1517333984375	138.3787384033203	568.3936767578125	986.3529663085938	128.0207977294922	541.0889282226562	631.4979858398438	107.2719955444336	383.4498901367188	1543.146850585938	61.33166122436523	290.6679077148438	1614.295043945312	-116.8414688110352	382.37353515625	1611.391967773438	-101.4570617675781	238.6435241699219	1538.763916015625	33.97861480712891	152.8654632568359	924.5511474609375	-49.49808502197266	519.5178833007812	919.4203491210938	32.49330139160156	482.7734680175781	931.671142578125	-99.78202819824219	238.9663238525391	930.8305053710938	-168.7615661621094	180.4245147705078	464.8883361816406	-39.11234664916992	165.0919342041016	605.7022705078125	-67.53024291992188	74.22614288330078	89.12890625	188.4675903320312	122.0025939941406	265.4557495117188	70.45917510986328	251.5406646728516	33.04600524902344	94.78900146484375	230.1620635986328	35.38648223876953	171.1573791503906	146.4331512451172	45.70922088623047	98.59918975830078	82.73338317871094	108.3913803100586	261.943115234375	547.571533203125	489.7717590332031	-159.0225830078125	548.5460815429688	735.2794189453125	-74.67604827880859	555.4239501953125	371.3924865722656	-203.3652954101562	522.6986694335938	51.9075813293457	-387.1224670410156	485.39599609375	45.04930877685547	-329.9508056640625	598.4849243164062	26.84921073913574	-301.8341674804688	536.2911376953125	35.61019897460938	-144.1828918457031	592.1587524414062	710.96240234375	144.4880981445312	571.325439453125	694.9212646484375	78.02511596679688	585.2255249023438	35.11655426025391	-196.9572296142578	nan	nan	nan	nan	nan	nan	nan	nan	nan	
200	1.99	397.2924499511719	966.3358154296875	97.76323699951172	230.9283752441406	968.7590942382812	40.95003890991211	307.9168395996094	1034.412109375	53.07987976074219	385.3200378417969	1227.061401367188	-168.3836212158203	296.9956359863281	1147.662353515625	75.42360687255859	296.7653198242188	1395.64453125	43.77957153320312	359.2841186523438	1324.265747070312	-105.9093627929688	349.2731628417969	1253.749877929688	110.7153472900391	190.9243011474609	1359.813842773438	18.0825366973877	175.8061065673828	1370.464721679688	-84.63866424560547	99.43954467773438	1252.112182617188	-95.74980926513672	86.43714904785156	1052.319946289062	-132.0765991210938	121.461784362793	1028.254638671875	-55.59213256835938	165.7859802246094	847.8221435546875	-224.3762359619141	93.67375946044922	831.996826171875	-215.8538208007812	85.14645385742188	952.4036254882812	-164.0460968017578	165.5859069824219	668.4871826171875	-267.345947265625	99.57726287841797	746.703369140625	-236.4340057373047	154.5640258789062	757.668212890625	-271.7677612304688	468.9998779296875	1373.843505859375	38.11962890625	526.2420043945312	1315.466674804688	69.39544677734375	554.7711791992188	1054.127807617188	121.0865097045898	462.1493530273438	1046.0458984375	101.5820465087891	558.5990600585938	815.3424682617188	50.94060897827148	598.1649780273438	826.1875	126.0844573974609	576.9891357421875	987.357177734375	117.7381134033203	551.3195190429688	632.629638671875	93.33753967285156	389.4980163574219	1544.465209960938	56.11956024169922	295.8441467285156	1615.863159179688	-121.4604110717773	387.5972900390625	1612.980712890625	-106.5471038818359	244.5821838378906	1540.033935546875	29.48336982727051	158.2058258056641	925.2886352539062	-55.77837753295898	525.3862915039062	922.1011352539062	25.38789367675781	488.3096923828125	933.8982543945312	-106.5844573974609	244.4530029296875	931.9959106445312	-174.8106079101562	184.7459259033203	465.4730224609375	-46.77643966674805	169.9529724121094	606.3458862304688	-74.47519683837891	75.91578674316406	93.44841003417969	186.4856719970703	124.7950744628906	267.9375	65.6619873046875	251.7491760253906	33.01255416870117	94.48725891113281	230.9832916259766	36.41377639770508	170.2772979736328	147.2195281982422	46.15245056152344	97.70478820800781	85.64704895019531	114.6345138549805	259.4169006347656	551.3346557617188	490.4693298339844	-164.655517578125	553.7173461914062	737.2000122070312	-82.10952758789062	558.2433471679688	371.4369506835938	-207.6085510253906	523.5535278320312	50.7107048034668	-387.6696472167969	486.16552734375	44.92710113525391	-330.3650817871094	599.0817260742188	26.0289363861084	-301.8993225097656	536.6962280273438	35.91973495483398	-144.4173736572266	602.3675537109375	711.9733276367188	130.8710632324219	580.9404907226562	696.5459594726562	64.43990325927734	585.6115112304688	34.86681747436523	-197.1439361572266	nan	nan	nan	nan	nan	nan	nan	nan	nan	
201	2	402.9898071289062	968.1644287109375	90.98017883300781	236.4884185791016	969.9351196289062	34.80924606323242	313.3973388671875	1036.003051757812	47.00856781005859	390.504150390625	1229.114624023438	-174.5519409179688	302.9251403808594	1149.011840820312	69.61175537109375	302.7453002929688	1397.007934570312	38.60125732421875	364.6611938476562	1326.09814453125	-111.651725769043	355.6808471679688	1254.951171875	104.8181686401367	196.8447265625	1361.421142578125	13.35500335693359	181.2337646484375	1372.216186523438	-89.46196746826172	104.8168334960938	1253.850219726562	-100.2404861450195	91.51402282714844	1053.64208984375	-134.3219604492188	128.0531768798828	1030.361938476562	-58.46563339233398	166.5064697265625	844.6763305664062	-221.8409576416016	94.23294067382812	830.5935668945312	-211.5998992919922	88.40196228027344	952.7408447265625	-163.7234802246094	161.9265899658203	663.6405029296875	-257.4357604980469	98.08941650390625	744.5260620117188	-228.7842407226562	152.8117980957031	752.7338256835938	-265.3533935546875	474.9365539550781	1375.32763671875	31.9390926361084	532.5198974609375	1316.90576171875	62.52062225341797	563.08203125	1055.262573242188	111.7320251464844	470.3278503417969	1046.870483398438	93.43228912353516	567.5062866210938	817.348388671875	38.53775405883789	607.6912841796875	827.3994750976562	113.4698333740234	585.5794067382812	988.5244140625	107.3630599975586	561.7211303710938	634.0014038085938	78.69856262207031	395.5001525878906	1545.8359375	50.90875625610352	301.0412902832031	1617.536865234375	-126.0798797607422	392.8243408203125	1614.634521484375	-111.6226577758789	250.4824523925781	1541.420043945312	24.97550010681152	163.5231018066406	926.1822509765625	-61.69922637939453	531.4351806640625	924.8101196289062	18.04796409606934	493.7046203613281	936.1525268554688	-113.4413146972656	249.7103576660156	933.3140258789062	-180.6424102783203	188.8710784912109	466.0850524902344	-54.87236022949219	174.6073455810547	607.0822143554688	-81.58110809326172	77.9569091796875	98.02265167236328	184.4289093017578	127.6100006103516	270.6043701171875	60.63594818115234	251.9420013427734	32.97393417358398	94.12982940673828	231.9877014160156	37.55492401123047	169.3026123046875	148.1095581054688	46.65143203735352	96.80548858642578	89.15511322021484	121.2008056640625	256.6492309570312	555.07470703125	491.0236511230469	-169.6747131347656	558.958984375	738.9244995117188	-89.2286376953125	561.0140991210938	371.4112548828125	-211.379150390625	524.194091796875	49.70488357543945	-388.1348266601562	486.789306640625	44.8875732421875	-330.6763000488281	599.5338134765625	25.40957450866699	-301.94873046875	537.0610961914062	36.1220817565918	-144.5738677978516	612.6864624023438	713.181884765625	116.7179565429688	590.6859741210938	698.4727172851562	50.29256057739258	585.95361328125	34.61159515380859	-197.3027648925781	nan	nan	nan	nan	nan	nan	nan	nan	nan	
202	2.01	408.9112854003906	970.06689453125	84.35350036621094	242.2415313720703	971.1289672851562	28.98895263671875	318.8914794921875	1037.675903320312	41.18326568603516	395.5444946289062	1231.19189453125	-180.6837615966797	308.8667907714844	1150.448364257812	63.8699836730957	308.6620788574219	1398.454711914062	33.44933319091797	369.9161987304688	1327.948974609375	-117.3739776611328	362.0033874511719	1256.235961914062	98.96634674072266	202.7217254638672	1363.152954101562	8.694665908813477	186.5659027099609	1374.072265625	-94.27474975585938	110.0993957519531	1255.713989257812	-104.7899703979492	96.53202056884766	1055.16455078125	-136.6139526367188	134.4576568603516	1032.589965820312	-61.3682746887207	167.1478271484375	841.927734375	-219.0302886962891	94.82820129394531	829.6651611328125	-207.1882934570312	91.64778137207031	953.4378662109375	-163.3644256591797	158.3546600341797	659.53173828125	-246.9258117675781	96.65450286865234	742.9755249023438	-220.8509216308594	151.0818176269531	748.3536376953125	-258.48779296875	480.7726745605469	1376.876586914062	25.75165748596191	538.6767578125	1318.436889648438	55.65113067626953	571.373046875	1056.520263671875	102.3216018676758	478.4922485351562	1047.763671875	85.24500274658203	576.4461669921875	819.6053466796875	25.84174919128418	617.251953125	828.7672729492188	100.5658111572266	594.1468505859375	989.8253173828125	96.91014099121094	572.2737426757812	635.6058349609375	63.38148880004883	401.4467468261719	1547.225708007812	45.70173263549805	306.2500915527344	1619.279174804688	-130.7050323486328	398.0513916015625	1616.313354492188	-116.6851959228516	256.3410339355469	1542.900512695312	20.45465469360352	168.8335266113281	927.1824951171875	-67.19812774658203	537.6533203125	927.5130004882812	10.49668025970459	498.94091796875	938.383544921875	-120.3464202880859	254.7263336181641	934.74755859375	-186.2393798828125	192.7498626708984	466.7092590332031	-63.36801147460938	179.0112152099609	607.8916625976562	-88.82009124755859	80.40963745117188	102.8031005859375	182.2983703613281	130.4318084716797	273.449951171875	55.39142227172852	252.121337890625	32.92882537841797	93.70972442626953	233.1908569335938	38.84856033325195	168.2391662597656	149.0943908691406	47.22221374511719	95.88794708251953	93.2344970703125	128.0428161621094	253.59326171875	558.7495727539062	491.4111633300781	-174.0661163330078	564.2477416992188	740.414306640625	-95.9996337890625	563.7122802734375	371.2981567382812	-214.69970703125	524.6154174804688	48.79338455200195	-388.5557556152344	487.2549133300781	44.85441207885742	-330.9178161621094	599.8472900390625	24.95266151428223	-301.9979553222656	537.3767700195312	36.24669647216797	-144.6742858886719	623.0906982421875	714.578369140625	102.0566787719727	600.540283203125	700.6902465820312	35.61573028564453	586.249755859375	34.37334060668945	-197.4560546875	nan	nan	nan	nan	nan	nan	nan	nan	nan	
